<svg xmlns="http://www.w3.org/2000/svg" viewBox="0 0 1164.61 755.19"><switch><g><path d="M39.5 728.16c-1.53-3.2-1.77-6.29-1.79-9.5-.32-55.82-.32-111.65-1.22-167.46-.44-27.32-.19-54.66-1.04-81.96-.3-9.76-1.13-19.65-1.03-29.33.1-10.93.31-21.93.11-32.86-.73-39.48-.6-78.95-.84-118.43-.03-5.04 1.58-7.78 6.05-10.09 28.12-14.5 56.67-28.1 85.55-41.01 29.33-13.11 58.54-26.48 87.98-39.33 26.55-11.6 52.33-24.83 78.67-36.86 2.54-1.16 5.07-1.48 7.75-1.5 61.32-.61 122.64-1.23 183.97-.91 17.49.09 34.99-.02 52.48.17 4.21.05 5.17-.88 3.65-5.08-10.22-28.17-20.17-56.43-30.34-84.62-1.17-3.25.68-4.27 2.83-5.29 8.87-4.21 17.74-8.42 26.66-12.51 18.77-8.6 37.24-17.84 56.38-25.63 7.85-3.19 16.05-2.9 24.12-2.95 48.99-.29 97.99-.33 146.98-.32 84.99.02 169.99.15 254.98.25 4.33.01 8.66.4 12.98.25 3.45-.12 4.47 1.43 5.08 4.6 10.51 54.1 22.86 107.79 35.86 161.33 12.56 51.76 25.74 103.36 38.73 155.02 5.76 22.9 11.83 45.72 17.52 68.64 2.89 11.63 5.13 23.42 7.91 35.08.91 3.8-.12 5.87-3.67 7.43-16.42 7.2-32.8 14.5-49.14 21.89-11.82 5.34-23.58 10.83-35.34 16.32-4.48 2.09-9.11 2.75-14.05 2.74-68.5-.08-137-.06-205.49-.06-36.66 0-73.33.07-109.99-.11-4.61-.02-5.59 1.66-5.57 5.83.12 28.83-.08 57.67.14 86.5.04 5.46-1.09 8.63-6.35 11.72-15.36 9-30.11 19.05-45.04 28.78-20.1 13.09-40.48 25.71-61.26 37.69-21.47 12.38-42.9 24.84-64.58 36.85-11.78 6.52-24.63 11.26-35.89 18.53-8.06 5.21-16.1 5.06-24.63 5.06-128.16-.02-256.32.05-384.48-.23-16.15-.04-32.31-.31-48.47-.46-2.24-.03-4.61-.53-6.17 1.82zm222.2-442.23v.11h-20.97c-64.99 0-129.97.05-194.96-.09-4.96-.01-6.66 1.31-6.56 6.47.5 26.37.51 52.75.95 79.13.37 22.48-.17 44.96.69 67.45 1.04 27.3.05 54.63 1.05 81.95.93 25.64.29 51.3.92 76.95.91 36.96.8 73.94 1.17 110.91.03 2.98-.7 5.91-.01 8.95.65 2.89 1.8 4.06 5 4.01 40.65-.57 81.3-.34 121.94-.55 105.14-.53 210.28-.21 315.42-.05 4.62.01 5.56-1.43 5.42-5.65-.45-14.15-.07-28.3-.56-42.47-.96-27.97-.57-55.96-1.02-83.94-.66-40.8-.43-81.62.27-122.44.6-34.97 1.01-69.96 1.47-104.94.31-23.31 1.08-46.62 1.81-69.92.13-4.27-1.1-6.05-5.61-5.86-6.47.28-12.97-.02-19.45-.02-50.82-.01-101.65-.01-152.47-.01-18.17.01-36.33.01-54.5.01zm519.61-215.9v.42c-25.82 0-51.65.33-77.47-.09-25.66-.43-51.31-.14-76.96-.29-5.69-.03-5.88.31-3.81 5.61 10.15 26.07 19.88 52.29 28.47 78.92 1.22 3.77 2.97 5.27 7.07 5.22 16.83-.2 33.66-.07 50.49-.03 6.85.02 7.1.27 7.11 6.98.03 27.16.04 54.33.04 81.49-.01 64.99.01 129.98-.11 194.97-.01 4.5 1.85 5.87 5.99 5.72 5.66-.2 11.34.03 16.99-.21 5.24-.22 10.44-.21 15.68-.14 4.89.07 9.81.21 14.72.2 56.99-.05 113.99-.07 170.98-.09 28.33-.01 56.66-.07 84.99.08 4.24.02 5.12-.96 3.94-5.12-2.82-9.93-5.18-19.98-7.67-30-8.01-32.14-16.08-64.27-23.99-96.44-11.41-46.4-23.11-92.73-33.9-139.27-7.74-33.39-15.76-66.74-21.74-100.52-1.32-7.45-1.5-7.42-9.35-7.42-50.48.01-100.98.01-151.47.01zm-70.58 311.43h-.05V205.98c0-11.5-.01-23 .07-34.5.02-3.04-.48-3.95-3.61-2.11-30.02 17.59-60.07 35.15-90.22 52.51-20.33 11.7-40.68 23.38-61.32 34.51-16.85 9.09-34.14 17.37-51.27 25.94-2.99 1.5-5.1 2.98-5.18 6.96-.81 39.13-2.2 78.25-2.68 117.39-.47 38.3-.74 76.61-.32 114.93.4 36.15 0 72.3.71 108.45.56 28.49.38 56.99.38 85.49 0 4.28.96 4.76 4.74 2.84 21.06-10.71 41.83-21.95 62.38-33.58 24.2-13.69 48.28-27.61 72.2-41.78 23.51-13.92 45.46-30.25 68.58-44.77 4.28-2.69 5.71-5.45 5.69-10.34-.15-68.82-.1-137.64-.1-206.46zM946.5 72.25c.29 1.8.53 3.62.89 5.41 5.98 29.86 12.53 59.6 19.66 89.21 9.77 40.6 19.13 81.29 29.19 121.82 16.04 64.61 31.8 129.3 49.01 193.62 1.8 6.74 1.67 6.59 8.11 3.81 25.83-11.13 50.57-24.69 76.88-34.72 3.16-1.2 3.3-2.86 2.58-5.75-5.58-22.49-10.91-45.05-16.5-67.54-10.68-42.96-21.64-85.84-32.21-128.83-9.9-40.24-19.74-80.49-29.04-120.87-7.09-30.81-13.41-61.79-19.76-92.76-1.03-5-2.63-5.32-6.85-3.47-26.53 11.62-52.81 23.78-79.07 35.99-1.85.85-3.2 1.77-2.89 4.08zm-246.6 94.56l-.39-1.33c-1.61-.09-3.22-.26-4.84-.27-45.3-.27-90.6-.18-135.91-.71-58.3-.68-116.61-.27-174.92-.24-26.31.01-52.63-.11-78.94.69-4.31.13-5.79 1.42-5.8 5.79-.03 11.65-.64 23.3-.79 34.95-.31 23.31-1.49 46.61-.99 69.94.06 2.69-.04 4.72 3.87 4.69 31.32-.28 62.63-.5 93.95-.41 30.98.09 61.96-.8 92.93.69 3.78.18 7.6.51 11.24-1.4 6.78-3.55 13.75-6.73 20.53-10.27 33.77-17.67 67.08-36.16 99.81-55.73 21.28-12.73 42.96-24.77 64.45-37.14 5.29-3.07 10.54-6.18 15.8-9.25zM524.09 64.87c.05.25.1.5.16.76.94 0 1.87.01 2.81 0 15.32-.19 30.64-.53 45.96-.55 58.4-.07 116.81-.02 175.21-.04 58.64-.02 117.29-.36 175.93.15 12.15.11 23.25-1.24 33.83-7.25 4.9-2.79 10.27-4.74 15.4-7.13 14.98-6.98 29.94-13.99 44.9-21l-.15-1.46h-32.31c-73.14-.01-146.27-.02-219.41-.02-52.48-.01-104.95 0-157.43-.05-2.74 0-5.21.56-7.7 1.67-11.56 5.15-23.22 10.05-34.74 15.27-14.21 6.43-28.31 13.09-42.46 19.65zM50.99 279.11c.11.52.21 1.05.32 1.57h5.32c24.66-.01 49.32.02 73.99-.03 52.15-.11 104.3-.3 156.44-.34 3.51 0 3.67-1.84 3.72-4.41.33-19.65.69-39.3 1.09-58.96.3-14.65.71-29.3.99-43.96.04-2.13.84-5.44-3.46-3.18-17.65 9.26-35.93 17.15-54.14 25.23-12.02 5.33-23.92 10.92-35.94 16.25-21.15 9.38-42.41 18.55-63.52 28.01-19.12 8.57-38.16 17.34-57.15 26.19-9.32 4.34-18.45 9.08-27.66 13.63zM874.9 454.28v-.06c-50.81 0-101.62.06-152.44-.09-4.72-.01-6.53 1.2-6.31 6.13.36 8.15.35 16.33.05 24.49-.16 4.53 1.19 6.06 5.89 5.99 27.65-.41 55.3-.54 82.95-.73 6-.04 11.99.17 17.99.13 71.65-.5 143.3-.6 214.94.16 3.49.04 3.4-1.03 2.68-3.68-2.42-8.83-4.92-17.65-6.87-26.59-.97-4.44-2.89-5.85-7.42-5.84-50.48.14-100.97.09-151.46.09zM601.52 159.69c13.15 0 26.3.01 39.46-.01 5.92-.01 5.9-.03 3.86-5.33-1.49-3.88-2.99-7.76-4.38-11.67-7.93-22.41-15.85-44.82-23.73-67.24-1.04-2.95-2.04-5.44-6.01-5.43-29.79.05-59.57-.11-89.36-.05-6.47.01-6.62.68-4.42 6.71 9.39 25.79 18.8 51.57 27.94 77.45 1.29 3.65 2.99 4.82 6.71 5.01 16.64.83 33.29.3 49.93.56z"/><path d="M478.11 630.17c.6 24.96-1.03 49.89-.99 74.85.01 2.98.49 8.46-2.14 8.23-4.09-.35-2.16-5.48-2.07-8.41 1.11-38.58 1.5-77.16 1.8-115.75 0-.5-.04-1.01.03-1.5.16-1.08-.27-2.73 1.3-2.81 1.84-.09 1.72 1.72 1.85 2.96.19 1.82.21 3.65.21 5.48.02 12.33.01 24.64.01 36.95zM52.51 409.11c-.45-8.22-2.09-16.42-1.03-24.24 1.36-10.01.83-19.92 1.17-29.87.59-17.5-1-34.97-1.06-52.46 0-1.35-1.02-3.57 1.05-3.78 2.12-.22 1.55 2.11 1.7 3.45 2.69 23.24 1.92 46.57 2 69.89.03 10.08-.01 20.16-.1 30.24-.03 2.81-.14 5.74-3.73 6.77zM60.98 592.65c2.4 2.46 2.05 4.52 2.03 6.41-.32 30.3-.72 60.61-1.01 90.91-.05 5.26-2.51 10.69.95 15.78.2.29-.27 1.25-.66 1.68-.66.72-1.57.61-2.19-.08-1.08-1.21-2.09-2.29-2.04-4.28.74-31.78 1.34-63.57 2.04-95.35.09-4.72.54-9.42.88-15.07zM66.25 370.2c0 3.76.01 6.09-.01 8.42-.01 1.17.07 2.56-1.58 2.58-1.49.02-1.81-1.19-1.9-2.44-.28-3.48-.74-6.95-.82-10.43-.52-22.12-2.54-44.19-2.13-66.34.02-1.16.05-2.33.16-3.49.08-.87.48-1.73 1.44-1.76.93-.03 1.43.77 1.6 1.62.16.81.23 1.65.25 2.48.7 23.62 1.11 47.23 2.99 69.36zM132.91 297.21c-14.99-1.98-30.77-2.37-46.59-2.15-6.34.09-12.62.54-18.83 1.88-1.38.3-3.33.91-3.51-1.37-.14-1.77 1.59-1.72 2.91-1.96 23.18-4.13 46.35-3.11 69.52 0 1.37.18 2.94.35 2.85 2.08-.1 1.96-1.91 1.38-3.13 1.5-.82.09-1.66.02-3.22.02zM469.11 657.19c-1.14 17.78-.63 35.59-1.01 53.38-.05 2.46.59 6.72-2.26 6.65-2.83-.07-2.09-4.35-2.03-6.82.56-21.78 1.26-43.55 1.96-65.32.04-1.4-.29-3.61 1.69-3.55 1.84.06 1.61 2.24 1.63 3.67.07 4 .02 7.99.02 11.99zM68.89 659.69c0-8.99-.03-17.99.03-26.98.01-1.39-.32-3.61 1.65-3.58 1.95.03 1.61 2.22 1.6 3.63-.13 20.81.92 41.61-.02 62.41-.13 2.81-.67 5.62-1.19 8.39-.19 1.04-.38 2.62-1.95 2.4-1.57-.22-1.28-1.77-1.27-2.86 0-3.83-.19-7.7.25-11.48 1.24-10.63.72-21.29.9-31.93zM407.53 713.16c-5.48 0-10.97.07-16.45-.04-1.66-.04-4.41.5-4.29-2.03.1-2.29 2.67-1.3 4.14-1.27 17.96.32 35.83-.79 53.68-2.68 1.81-.19 4.76-1.06 4.94 1.52.16 2.31-2.91 2.25-4.76 2.49-12.36 1.61-24.8 1.99-37.26 2.01zM75.1 712.08c6.82-.38 12.58-.97 18.33-.97 15.02-.02 29.9-1.4 44.72-3.72 1.56-.24 3.84-1.18 4.27.99.44 2.22-2.16 2.19-3.6 2.49-9.79 2.02-19.68 3.35-29.7 3.41-9.33.06-18.65.04-27.98-.01-1.71-.01-3.63.44-6.04-2.19zM647.61 81.14c1.14.33 1.37 1.33 1.66 2.29 4.51 15.21 11.32 29.42 18.53 43.48.62 1.22 2.4 3.18.11 4.23-1.66.76-2.42-1.31-3.18-2.52-8.51-13.48-13.79-28.32-18.25-43.5-.77-2.65-.24-4.14 1.13-3.98zM634.96 79.93c2.76 1.3 2.55 3.59 3.14 5.35 4.52 13.56 9.65 26.84 16.71 39.32 1.22 2.17 2.37 4.39 3.35 6.67.43.99 1.1 2.52.01 3.24-1.64 1.08-2.25-.81-2.98-1.73-4.5-5.69-6.95-12.44-9.65-19.04-3.82-9.37-7.72-18.73-10.21-28.58-.4-1.6-.97-3.13-.37-5.23zM699.06 536c0-13.8 0-27.61.01-41.41 0-1.33.01-2.67.15-3.98.1-.94.2-2.26 1.47-2.17 1.16.08 1.33 1.33 1.43 2.33.1.99.13 1.99.13 2.99.08 24.44-.12 48.88.64 73.32.15 4.8-.36 9.62-.61 14.44-.06 1.11.09 2.65-1.53 2.63-1.12-.01-1.44-1.3-1.56-2.27-.22-1.81-.37-3.64-.37-5.46-.03-13.47-.02-26.94-.02-40.41.08-.01.17-.01.26-.01zM508.8 341.54c0-13.47-.01-26.94.01-40.4 0-1.49.04-3 .21-4.48.1-.83.6-1.7 1.61-1.42.51.14 1.1.84 1.21 1.38.25 1.12.27 2.31.27 3.47.07 27.43.15 54.87.12 82.3 0 1.95.99 5.4-1.75 5.42-2.78.02-1.74-3.43-1.76-5.36-.11-13.63-.06-27.27-.06-40.9.06-.01.1-.01.14-.01zM522.87 285.07c.56-.07-.38.01-.79-.86-.46-.96.27-1.63 1.08-1.87 18.69-5.46 33.84-18.33 52.04-24.76 2.25-.79 5.79-3.38 6.94-.3.93 2.5-3.44 2.71-5.52 3.59-13.61 5.8-26.05 13.92-39.62 19.77-4.11 1.78-8.28 3.43-14.13 4.43zM514.88 287.88c2.69 2.83 2.7 6.13 3.07 9.08 1.86 14.93 1.4 29.93.82 44.91-.16 3.99-.37 7.98-.61 11.97-.07 1.16-.21 2.68-1.59 2.78-1.95.14-1.79-1.7-1.78-2.91.05-7.66-.16-15.35.43-22.98.98-12.52.36-24.95-.98-37.39-.18-1.63-.84-3.26.64-5.46zM693.27 554.92c0-7.8-.05-15.61.06-23.41.02-1.13-.29-3.2 1.56-3.1 1.74.1 1.32 2.05 1.34 3.26.28 15.26 1.89 30.52.08 45.78-.16 1.37.45 3.61-1.6 3.56-1.7-.04-1.73-2.25-1.75-3.67-.08-7.48-.04-14.95-.04-22.43.13.01.24.01.35.01zM663.02 618.84c-.44-.25-1.03-.38-1.2-.73-.57-1.15.23-1.92 1.08-2.43 3.69-2.21 7.36-4.47 11.16-6.49 10.28-5.47 19.65-12.33 29.3-18.76 1.02-.68 2.26-2.25 3.43-.99 1.49 1.59-.42 2.64-1.38 3.62-5.07 5.13-11.31 8.64-17.46 12.21-7.31 4.24-14.76 8.21-22.17 12.28-.87.47-1.79.84-2.76 1.29zM1094.25 345.04c2.29 1.04 2.6 2.93 3.24 4.61 4.87 12.71 10.49 25.19 14.43 38.18 4.38 14.41 8.84 28.88 11.23 43.83.3 1.89.21 3.66-1.4 5.02-.8.67-1.26 1.48-1.27 2.58-.01 1.34 1.53 3.37-.57 3.85-2.16.5-2.26-2.06-2.88-3.43-5.4-11.98-8.77-24.65-12.35-37.24-.88-3.11-.74-6.53-.92-9.81-.05-1.01-.34-2.59 1.6-2.38 3.05.32 3.16.3 2.18-2.53-4.23-12.26-8.54-24.48-12.81-36.73-.62-1.81-1.91-3.57-.48-5.95zM960.56 81.05c2.44 2.14 2.48 4.56 2.91 6.74 3.54 17.98 7.06 35.96 12.76 53.41 1.65 5.06 3.64 10.01 5.31 15.06.52 1.56 2.22 3.97.15 4.77-1.98.76-2.49-2.18-3.33-3.65-4.43-7.76-6.47-16.42-8.62-24.95-3.73-14.85-7.39-29.73-9.55-44.92-.27-1.97-.84-3.91.37-6.46zM981.23 134.17c-.2 1.05.52 2.64-1.01 2.94-1.61.32-1.68-1.41-1.93-2.39-4.47-17.68-10.4-34.98-13.98-52.89-.22-1.1-.81-2.55.59-3.06 1.52-.55 1.94 1 2.21 2.05 4.54 17.32 10.8 34.18 13.91 51.88.1.48.14.97.21 1.47zM310.2 212.11c-.2 13.58.47 28.39-1.78 43.07-.21 1.34.43 3.75-1.47 3.68-2.17-.08-1.58-2.66-1.56-4.06.15-12.46.16-24.94.84-37.37.61-11.14.2-22.26.47-33.39.03-1.33.01-2.66.08-3.99.06-1.02.24-2.17 1.53-2.16 1.22.01 1.6 1.1 1.65 2.12.13 2.65.21 5.31.22 7.97.04 7.64.02 15.29.02 24.13zM328.95 174.18c-2.66 0-5.32.09-7.98-.03-1.54-.07-4.03.6-4.12-1.59-.09-2.31 2.44-1.66 3.95-1.74 6.63-.32 13.28-.32 19.92-.64 10.1-.48 20.22-1.41 30.36-.53 1.24.11 3.1-.26 3.04 1.63-.04 1.3-1.73 1.45-2.83 1.51-4.31.23-8.64.5-12.95.43-9.82-.14-19.59.6-29.39.96zM314 209.5c0-7.32-.05-14.65.04-21.97.02-1.32-.34-3.52 1.84-3.36 1.69.12 1.33 2.09 1.33 3.32-.03 14.96 1.37 29.93.07 44.89-.1 1.21.48 3.15-1.4 3.18-1.59.03-1.83-1.82-1.84-3.09-.07-7.66-.04-15.31-.04-22.97zM634.9 32.83c13.3.67 26.59-1.49 39.89-.19 1.16.11 2.33.06 3.49.18 1.01.1 2.19.36 2.32 1.51.18 1.62-1.29 1.77-2.39 1.84-4.48.31-8.99.94-13.44.67-17.14-1.03-34.28-.28-51.42-.54-.83-.01-1.68.08-2.49-.04-1.11-.16-2.68-.09-2.8-1.52-.16-1.94 1.63-1.85 2.87-1.86 7.99-.08 15.98-.05 23.97-.05zM586.13 41.48c15.56-1.15 31.18-.21 48.1-2.22-6.68 5.08-39.7 6.37-48.1 2.22zM286.87 184.61c.4 6.11.97 11.49 1.05 16.87.19 11.99.13 23.98.16 35.96 0 .83.03 1.7-.2 2.48-.43 1.47.19 4.07-1.88 4.02-2.14-.06-1.46-2.66-1.59-4.12-1.17-12.79-.61-25.61-.2-38.42.12-3.82.26-7.65.48-11.47.1-1.54-.57-3.35 2.18-5.32zM271.76 198c-.27 1.46-1.41 1.89-2.39 2.48-5.57 3.37-11.57 5.81-17.57 8.28-10.62 4.37-21.02 9.18-30.77 15.34-1.08.68-2.76 2.26-3.78.38-.75-1.38 1.18-2.15 2.2-2.87 9.59-6.72 20.33-11.31 30.87-16.22 5.86-2.73 11.4-6.21 17.7-7.97 1.34-.36 2.83-1.38 3.74.58zM273.55 206.57c2.38 2.1 2.26 4.65 2.42 7.07.52 7.96-.07 15.98 1.08 23.92.19 1.33.62 3.43-1.54 3.54-1.68.09-1.68-1.77-1.88-3.05-1.66-10.48-.85-20.95-.08-31.48zM996.45 463.99c-8.98 0-17.96.02-26.94-.02-1.48-.01-2.97-.27-4.44-.53-.79-.14-1.71-.42-1.67-1.47.04-1.13 1.06-1.14 1.84-1.22 2.65-.27 5.3-.64 7.95-.66 16.13-.14 32.26-.26 48.39-.21 2.78.01 7.67-.69 7.58 2.31-.1 3.08-4.96 1.94-7.76 2-8.31.18-16.63.07-24.94.07-.01-.1-.01-.19-.01-.27zM1025.45 471.11c-3.72 2.06-7.61 1.64-11.17 1.75-6.95.21-13.92-.31-20.87-.57-.92-.03-2.23.19-2.32-1.18-.06-.91.86-1.39 1.75-1.4 10.41-.16 20.84-2.09 31.24.19.38.09.67.58 1.37 1.21zM559.1 147.07c.09 1.15.13 2.27-1.15 2.52-1.24.24-1.7-.89-2.1-1.75-2.38-5.13-4.96-10.19-7-15.46-5.9-15.2-12.21-30.26-16.32-46.1-.21-.81-.54-1.6-.62-2.42-.12-1.25-.93-3.07.64-3.55 2.12-.65 2.16 1.63 2.55 2.86 3.59 11.45 7.48 22.78 12.02 33.89 3.4 8.32 6.98 16.56 10.42 24.87.68 1.69 1.06 3.5 1.56 5.14zM555.8 116.35c.08.68.08 1.4-.73 1.6-.91.23-1.66-.25-2.09-.99-1.6-2.72-3.39-5.36-4.64-8.23-3.94-9-6.04-18.61-8.73-28.01-.31-1.07-.93-2.64.36-3.13 1.73-.67 2.09 1.21 2.49 2.33 4.27 11.86 7.76 24.01 13.07 35.48.13.29.18.63.27.95z"/><g><path d="M286.31 663.64c-.62.38-1.74.68-3.36.9-3.93.68-6.12 1.07-6.59 1.15l-4.16.7c0 2.22.03 4.54.1 6.98.06 2.43.16 4.57.29 6.4.17 2.48.47 4.37.9 5.7.43 1.32.66 2.07.7 2.24 0 .43-.27.82-.8 1.18s-1.03.54-1.5.54c-.26 0-.47-.08-.64-.22-.17-.15-.32-.4-.45-.74-.26-.6-.5-1.71-.74-3.33s-.42-3.41-.54-5.38c-.13-1.75-.22-3.79-.29-6.11-.06-2.32-.1-4.58-.1-6.75-2.39.38-4.84.85-7.36 1.41-2.26.47-3.61.7-4.03.7-.51 0-.99-.15-1.44-.45-.45-.3-.67-.7-.67-1.22 0-.55.19-.92.58-1.09.38-.17 1.02-.26 1.92-.26.64 0 1.58-.12 2.82-.35 1.24-.23 2.03-.39 2.37-.48 2.86-.55 4.8-.92 5.82-1.09 0-.9-.04-2.07-.13-3.52-.09-1.96-.13-3.46-.13-4.48 0-1.66.05-2.95.16-3.87.11-.92.31-1.74.61-2.46.34-.85.98-1.28 1.92-1.28.38 0 .64.06.77.19s.19.36.19.7c0 .26-.11 1-.32 2.24-.21 1.24-.32 2.88-.32 4.93 0 1.58.04 3.35.13 5.31l.06 1.73c1.92-.3 5.72-1.09 11.39-2.37.34-.08.63-.38.86-.9.23-.51.48-.77.74-.77.47 0 .95.27 1.44.8s.74 1.08.74 1.63c-.01.75-.32 1.3-.94 1.69zM310.85 680.98c-1.24 2.18-2.99 4.04-5.25 5.6-2.26 1.56-4.84 2.34-7.74 2.34-2.86 0-4.97-.79-6.34-2.37s-2.05-3.54-2.05-5.89c0-2.05.37-4.59 1.12-7.62.75-3.03 1.8-5.74 3.17-8.13.08-.17.44-.8 1.06-1.89.62-1.09 1.31-1.92 2.08-2.5.77-.58 1.58-.86 2.43-.86.38 0 .74.1 1.06.29.32.19.48.44.48.74 0 .09-.12.29-.35.61-.23.32-.42.57-.54.74-1.45 1.75-2.62 3.48-3.52 5.18-1.19 2.18-2.12 4.33-2.78 6.46-.66 2.13-.99 4.46-.99 6.98 0 3.37 2.05 5.06 6.14 5.06 1.92 0 3.7-.55 5.34-1.66 1.64-1.11 2.95-2.46 3.94-4.06.98-1.6 1.47-3.06 1.47-4.38 0-1.49-.49-2.79-1.47-3.9-.98-1.11-2.33-2.28-4.03-3.52-1.11-.81-1.92-1.47-2.43-1.98-.51-.51-.77-.94-.77-1.28 0-.51.36-.93 1.09-1.25.72-.32 1.58-.48 2.56-.48.55 0 .92.03 1.09.1.17.06.26.18.26.35 0 .09-.08.22-.22.42-.15.19-.22.35-.22.48s.43.55 1.28 1.28c1.71 1.41 3.14 2.84 4.29 4.29 1.15 1.45 1.73 3.16 1.73 5.12-.03 1.63-.65 3.55-1.89 5.73zM338.24 680.98c-1.24 2.18-2.99 4.04-5.25 5.6-2.26 1.56-4.84 2.34-7.74 2.34-2.86 0-4.97-.79-6.34-2.37s-2.05-3.54-2.05-5.89c0-2.05.37-4.59 1.12-7.62.75-3.03 1.8-5.74 3.17-8.13.08-.17.44-.8 1.06-1.89.62-1.09 1.31-1.92 2.08-2.5.77-.58 1.58-.86 2.43-.86.38 0 .74.1 1.06.29.32.19.48.44.48.74 0 .09-.12.29-.35.61-.23.32-.42.57-.54.74-1.45 1.75-2.62 3.48-3.52 5.18-1.19 2.18-2.12 4.33-2.78 6.46-.66 2.13-.99 4.46-.99 6.98 0 3.37 2.05 5.06 6.14 5.06 1.92 0 3.7-.55 5.34-1.66 1.64-1.11 2.95-2.46 3.94-4.06.98-1.6 1.47-3.06 1.47-4.38 0-1.49-.49-2.79-1.47-3.9-.98-1.11-2.33-2.28-4.03-3.52-1.11-.81-1.92-1.47-2.43-1.98-.51-.51-.77-.94-.77-1.28 0-.51.36-.93 1.09-1.25.72-.32 1.58-.48 2.56-.48.55 0 .92.03 1.09.1.17.06.26.18.26.35 0 .09-.08.22-.22.42-.15.19-.22.35-.22.48s.43.55 1.28 1.28c1.71 1.41 3.14 2.84 4.29 4.29 1.15 1.45 1.73 3.16 1.73 5.12-.03 1.63-.65 3.55-1.89 5.73zM383.07 675.57c-1.13 3.95-2.44 7.15-3.94 9.6-1.49 2.45-2.69 3.68-3.58 3.68-1.28 0-2.5-1.24-3.65-3.71-1.15-2.47-2.1-5.46-2.85-8.96-.75-3.5-1.21-6.68-1.38-9.54-1.15 2.22-2.39 4.73-3.71 7.52-1.32 2.79-2.37 5.17-3.14 7.14-1.15 3.03-2.18 5.97-3.07 8.83-.04.08-.11.29-.19.61-.09.32-.2.54-.35.67-.15.13-.37.19-.67.19-.64 0-1.12-.14-1.44-.42-.32-.28-.61-.71-.86-1.31l-.51-2.62c-.77-4.18-1.58-8.15-2.43-11.9-.94-3.88-1.9-7.08-2.88-9.6-.98-2.52-1.73-3.78-2.24-3.78-.17 0-.43.14-.77.42-.34.28-.66.5-.96.67-.3.17-.56.21-.77.13-.51-.26-.77-.55-.77-.9 0-.34.26-.87.77-1.6.51-.72 1.1-1.38 1.76-1.95.66-.58 1.25-.86 1.76-.86.38 0 .71.1.99.29.28.19.57.48.86.86.55.73 1.32 2.42 2.3 5.09.98 2.67 1.88 5.9 2.69 9.7l2.62 11.2c1.96-5.46 3.77-9.99 5.41-13.6 1.64-3.61 3.51-7.35 5.6-11.23.81-1.45 1.66-2.18 2.56-2.18.6 0 1.09.21 1.47.64.38.43.58.77.58 1.02 0 .17-.11.36-.32.58-.21.21-.38.43-.51.64-.34.47-.61 1-.8 1.6-.19.6-.29 1.52-.29 2.75 0 1.49.27 3.83.8 7.01.53 3.18 1.26 6.03 2.18 8.54.92 2.52 1.91 3.78 2.98 3.78.64 0 1.43-1.07 2.37-3.2.94-2.13 1.76-4.77 2.46-7.9.7-3.14 1.06-6.15 1.06-9.06 0-.6-.3-1.28-.9-2.05-.47-.64-.7-1.11-.7-1.41 0-.26.2-.63.61-1.12.4-.49.82-.74 1.25-.74.55 0 1.08.45 1.57 1.34.49.9.74 1.79.74 2.69-.01 4.36-.58 8.51-1.71 12.45zM415.55 673.11c0 .77-.57 2.45-1.7 5.06-1.13 2.6-2.84 5.01-5.12 7.23-2.28 2.22-5.09 3.33-8.42 3.33-2.73 0-5.01-.85-6.85-2.56-1.84-1.71-2.75-4.33-2.75-7.87 0-3.33.77-6.62 2.3-9.89 1.54-3.26 3.54-5.93 6.02-8 2.47-2.07 5.03-3.1 7.68-3.1 1.58 0 2.91.35 4 1.06 1.09.7 1.63 1.72 1.63 3.04 0 1.49-.84 2.94-2.53 4.35-1.69 1.41-3.87 2.65-6.56 3.71s-5.46 1.83-8.32 2.3c-.51 1.96-.77 3.88-.77 5.76 0 2.48.59 4.4 1.76 5.76 1.17 1.37 2.85 2.05 5.02 2.05 3.29 0 5.95-1.17 8-3.52s3.75-4.99 5.12-7.94c.08-.17.23-.5.45-.99.21-.49.41-.74.58-.74.31 0 .46.32.46.96zm-7.13-12.61c-.7-.38-1.53-.58-2.46-.58-1.62 0-3.18.53-4.67 1.6a14.991 14.991 0 00-3.74 3.84c-1 1.49-1.65 2.82-1.95 3.97 1.96-.21 4.03-.77 6.21-1.66 2.18-.9 4-1.88 5.47-2.94 1.47-1.07 2.21-1.94 2.21-2.62-.02-.69-.37-1.23-1.07-1.61zM445.25 673.11c0 .77-.57 2.45-1.7 5.06-1.13 2.6-2.84 5.01-5.12 7.23-2.28 2.22-5.09 3.33-8.42 3.33-2.73 0-5.01-.85-6.85-2.56-1.84-1.71-2.75-4.33-2.75-7.87 0-3.33.77-6.62 2.3-9.89 1.54-3.26 3.54-5.93 6.02-8 2.47-2.07 5.03-3.1 7.68-3.1 1.58 0 2.91.35 4 1.06 1.09.7 1.63 1.72 1.63 3.04 0 1.49-.84 2.94-2.53 4.35-1.69 1.41-3.87 2.65-6.56 3.71s-5.46 1.83-8.32 2.3c-.51 1.96-.77 3.88-.77 5.76 0 2.48.59 4.4 1.76 5.76 1.17 1.37 2.85 2.05 5.02 2.05 3.29 0 5.95-1.17 8-3.52s3.75-4.99 5.12-7.94c.08-.17.23-.5.45-.99.21-.49.41-.74.58-.74.31 0 .46.32.46.96zm-7.14-12.61c-.7-.38-1.53-.58-2.46-.58-1.62 0-3.18.53-4.67 1.6a14.991 14.991 0 00-3.74 3.84c-1 1.49-1.65 2.82-1.95 3.97 1.96-.21 4.03-.77 6.21-1.66 2.18-.9 4-1.88 5.47-2.94 1.47-1.07 2.21-1.94 2.21-2.62-.01-.69-.36-1.23-1.07-1.61z"/></g></g></switch></svg>